# xmcd CD database file
#
# Track frame offsets:
#	150
#	22728
#	44004
#
# Disc length: 666 seconds
#
# Revision: 0
# Processed by: cddbd v1.5.1PL2 Copyright (c) Steve Scherf et al.
# Submitted via: CDex 1.60beta1
#
DISCID=1b029803
DTITLE=Rhymester - HEAT ISLAND feat. FIREBALL
DYEAR=1900
DGENRE=Hip Hop
TTITLE0=HEAT ISLAND feat. FIREBALL
TTITLE1=けしからん
TTITLE2=HEAT ISLAND 〜『怪』edit〜
EXTD=
EXTT0=
EXTT1=
EXTT2=
PLAYORDER=
